<?xml version="1.0" encoding="UTF-8"?>
<!DOCTYPE svg PUBLIC "-//W3C//DTD SVG 1.1//EN" "http://www.w3.org/Graphics/SVG/1.1/DTD/svg11.dtd">
<!-- Creator: CorelDRAW 2021 (64-Bit) -->
<svg xmlns="http://www.w3.org/2000/svg" xml:space="preserve" width="55.3223mm" height="12.7761mm" version="1.1" style="shape-rendering:geometricPrecision; text-rendering:geometricPrecision; image-rendering:optimizeQuality; fill-rule:evenodd; clip-rule:evenodd"
viewBox="0 0 5625.05 1299.05"
 xmlns:xlink="http://www.w3.org/1999/xlink"
 xmlns:xodm="http://www.corel.com/coreldraw/odm/2003">
 <defs>
  <style type="text/css">
   <![CDATA[
    .fil0 {fill:white}
   ]]>
  </style>
 </defs>
 <g id="Layer_x0020_1">
  <metadata id="CorelCorpID_0Corel-Layer"/>
  <g id="_2468710394016">
   <path class="fil0" d="M5172.47 1093.64l-169.29 0 -192.84 -557.69c-2.53,-7.64 -5.4,-15.03 -7.91,-22.56l-38.95 -112.28c-2.55,-7.31 -5.82,-15.92 -7.46,-23.01l-232.5 0 0 715.55 -177.19 0 0 -715.55 -258.45 0c0,-30.01 -3,-74.92 8.27,-98.95 3.42,-7.29 6,-11.55 10.24,-17.98 10.2,-15.5 31.33,-30.65 50.61,-35.17 15.76,-3.69 36,-2.52 55.04,-2.52l687.33 0c0.48,5.81 3.93,15.37 5.4,20.57l17.31 60.56c39.43,135.19 76.62,271.65 115.98,406.57l40.37 141.34c2.08,7.19 4.44,14.22 6.04,21.05 4.83,-6.95 103.41,-356.44 117.23,-399.68 14.44,-45.14 29,-105.16 43.45,-149.54 5.55,-17.03 9.14,-33.75 14.94,-50.52 10.5,-30.42 38.71,-50.59 79.43,-50.36 43.24,0.24 86.56,0.01 129.81,0.01 -0.55,6.58 -14.81,45.01 -17.92,54.33 -26.98,80.94 -56.55,162.84 -83.52,243.77 -3.22,9.67 -6.43,18.02 -9.61,27.65 -12.3,37.28 -24.58,72.33 -37.22,109.5l-74.5 216.68c-6.24,18.76 -12.12,35.24 -18.33,53.9l-55.73 164.35zm-1236.97 -870.17l0 852.11c0,64.32 36.82,132.56 85.92,171.41 9.99,7.9 22.27,16.81 33.73,22.7 35.55,18.33 65.89,29.35 115.11,29.35l1217.79 0c27.26,0 52.68,-3.76 76.32,-11.71 22.89,-7.69 41.01,-16.45 60.25,-30.04 49.73,-35.11 81.17,-82.12 95.24,-142.9 3.62,-15.65 5.2,-35.97 5.2,-54.62l0 -820.51c0,-53.12 -13.08,-96.27 -39.28,-135.66 -5.92,-8.9 -24.59,-32.9 -32.79,-39.44l-41.86 -31.5 -19.08 -10.26c-32.86,-13.21 -54.15,-22.41 -94.97,-22.41l-1232.46 0c-80.79,0 -143.6,40.93 -185.58,96.58 -23.59,31.29 -43.53,83.11 -43.53,126.88z"/>
   <path class="fil0" d="M531.58 497.72l-278.77 0 0 -264.1 294.57 0c60.52,0 127.61,11.87 155.4,61.29 5.16,9.15 7.32,15.08 10.38,25.73 9.55,33.14 5.65,85.95 -12.28,112.76 -37.08,55.44 -103.28,64.31 -169.3,64.31zm-531.58 -302.47l0 -51.59c0.44,-8.34 1.3,-16.27 2.94,-23.35 13.52,-58.71 62.73,-105.63 125.72,-105.63l463.86 0c70.33,0 161.15,11.68 221.97,42.11 19.18,9.59 37.54,19.62 54.71,32.19 16.62,12.16 32.13,26.94 45.13,42.91 12.88,15.82 25.31,34.41 33.69,53.22 37.3,83.74 41.04,206.09 -1.87,292.68 -19.23,38.81 -49.51,68.42 -85.02,92.16 -4.92,3.29 -29.86,16.82 -31.6,19.19 11.18,0.94 50.25,22.03 61.86,29.56 58.11,37.66 99.17,83.97 116.93,155.07 10.02,40.1 14.2,83.81 11.94,125.74 -0.36,6.7 0.34,11.97 -0.64,18.54l-3.67 33.57c-3.02,21.65 -7.87,42.74 -14.16,61.45 -22.02,65.49 -55.61,113.71 -108.9,156.33 -36.86,29.5 -80.33,48.49 -125,63.48 -88.47,29.68 -178.28,27.79 -274.68,27.79 -100.82,0 -201.65,0 -302.47,0 0.72,-0.62 1.5,-1.31 2.44,-2.07l15.13 -11.97c6.08,-4.58 11.4,-8.57 17.16,-13.3l69.58 -54.57c29.14,-22.76 57.78,-46.28 87.4,-68.35l34.81 -27.26c32.52,-24.11 62.86,-51.37 96.49,-73.93l68.36 -55.79c2.9,-2.88 4.96,-5.03 7.88,-7.92 3.46,-3.44 4.31,-4.75 7.38,-8.42l29.86 -32.21c2.5,-2.84 4.87,-4.51 7.22,-7.45l14.76 -16.83c14.66,-15.85 30.65,-32.06 49.32,-43.22 45.43,-27.15 73.14,-15.48 114.97,11.57 18.22,11.77 18.22,14.05 24.3,2.41 1.6,-3.04 2.79,-4.73 4.63,-7.79 3.36,-5.58 5.59,-9.58 8.54,-15.16 -5.84,-6.72 -13.48,-11.35 -21.23,-16.01 -7.75,-4.67 -15.22,-8.84 -22.84,-13.28 -4.46,-2.6 -8.1,-3.73 -13.12,-6.07 -19.95,-9.32 -32.76,-12.04 -55.68,-12.04 -29.67,0 -57.14,18.55 -78.95,31.65 -9.12,5.48 -32.07,24.78 -40.68,24.78 -17,0 -71.91,-25.2 -88.03,-31.6 -14.12,-5.61 -27,-11.44 -41.28,-17.41 -18.02,-7.51 -27.98,-16.45 -47.88,-16.45 -15.84,0 -82.89,35.24 -103.46,45.52 -33.04,16.52 -67.14,32.31 -99.71,49.27l-15.81 9.02c-5.29,3.46 -9.06,6.49 -10.65,14.18 -3.61,17.47 -5.3,47.18 -7.86,66.63 -1.67,12.6 -1.45,9.12 -9.33,15.5 -36.76,29.72 -74.69,57.43 -111.31,87.33 -4.87,3.97 -9.06,6.87 -13.97,10.86 -16.24,13.18 -54.31,43.84 -69.2,53.82l0 -928.86z"/>
   <path class="fil0" d="M2990.84 1260.67l246.04 0 0 -351c0,-14.36 3.1,-24.92 9.48,-33.42 15.36,-20.5 43.38,-17.13 62.1,-4.3 7.2,4.93 17.09,13.01 22.27,19.5 3.29,4.13 5.79,6.86 9.22,11.09 20.19,24.88 38.75,61.66 53.83,90.64l43.09 79.93c10.53,17.31 18.83,35.88 28.76,53.62l50.77 93.69c2.55,5.2 4.78,8.33 7.16,13.16 4.53,9.19 9.87,18.05 14.66,27.1l295.7 0c-3.16,-5.97 -6.78,-11.9 -10.37,-17.84 -32.23,-53.38 -62.91,-107.79 -94.95,-161.25l-190.87 -323.77c-7.52,-12.44 -13.9,-23.83 -21.31,-36.26 -7.36,-12.34 -14.45,-23.91 -21.09,-36.47l42.03 -44.87c7.61,-7.52 13.32,-14.5 20.89,-21.99l83.97 -89.84c3.74,-4.7 6.01,-6.93 10.27,-11.17l31.6 -33.86c1.91,-1.9 3.29,-3.12 5.09,-5.06 2.39,-2.58 2.66,-3.66 5.05,-6.23 3.76,-4.08 7.65,-7.16 11.29,-11.29 20.22,-22.96 41.87,-44.66 62.66,-67.13l46.84 -50.22c3.37,-3.5 14.77,-15.66 15.5,-18.36 -77.88,0 -155.75,0 -233.63,0 -18.32,0 -39.72,-1.04 -57.64,-0.08 -6.72,0.36 -11.81,8.54 -15.72,13.62l-88.32 101.29c-2.84,3.05 -4.11,5.08 -6.76,7.91 -16.28,17.41 -40.92,48.46 -54.73,62.64 -16.86,17.32 -31.11,37.38 -47.99,54.71l-61.49 70.54c-9.7,9.76 -18.45,21.08 -27.37,31.33l0 -527.07c0.01,-33.58 -9.88,-63.8 -32.43,-87.2 -21.58,-22.42 -50.78,-38.07 -83.82,-38.07l-129.79 0 0 1245.99z"/>
   <path class="fil0" d="M1478.5 1078.96c-38.26,0 -70.49,-9.06 -90.59,-29.04 -41.77,-41.53 -46.32,-131.08 9.32,-174.12 16.85,-13.02 21.75,-15.38 41.02,-24.44 13.24,-6.21 35.51,-12.68 50.69,-15.9 18.77,-3.98 35.67,-7.29 53.67,-11.78 16.56,-4.14 36.25,-8.68 52.57,-14.02 16.95,-5.54 33.52,-9.54 49.57,-15.89 12.72,-5.03 37.68,-13.34 48.21,-18.39 0,42.13 1.71,87.5 -2.45,126.21 -3.86,35.87 -18.74,76.75 -41.21,104.38 -12,14.75 -9.87,12.38 -23.77,24.77 -6.86,6.11 -20.27,15.8 -28.49,20.04 -34.69,17.92 -69.52,28.2 -118.52,28.2zm-336.33 -532.71l246.04 0c14.89,-63.9 100.66,-67.72 155.75,-67.72 43.58,0 106.04,9.69 130.46,42.22 26.38,35.12 15.01,73.97 -18.27,97.07l-28.01 14.88 -33.39 10.62c-16.14,4.01 -30.73,6.98 -49.02,9.67 -33.89,4.99 -65.69,6.75 -103.19,13.07 -33.49,5.63 -64.61,11.83 -95.6,20.64 -123.71,35.21 -209.85,102.42 -229.27,234.59 -16.85,114.64 15.37,225.51 104.47,292.15 10.76,8.04 23.28,16.53 35.91,22.78 18.09,8.96 17.44,9.32 39.38,18.18 13.29,5.36 30.73,10.62 44.79,13.9 74.47,17.4 149.68,15.32 225.38,4.74 54.63,-7.65 117.46,-22.96 165.22,-46.96l34.4 -18.65c15.56,-9.36 24.56,-16.02 38.43,-27.02l20.95 -18.57c8.3,-6.39 29.97,-32.65 36.76,-42.24l20.38 -32.67c15.58,-27.01 29.57,-66.41 35.97,-97.21 5.84,-28.07 11.38,-61.24 11.38,-94.71l0 -356.65c0,-56.65 -20.43,-106.76 -53.04,-148.99l-20 -20.63c-23.27,-19.47 -15.8,-15.59 -46.8,-34.46 -8.02,-4.88 -17.37,-9 -26.12,-13.38 -61.94,-30.99 -169.93,-44.38 -240.03,-44.38 -68.48,0 -115.47,0.54 -180.35,18.29 -36.28,9.93 -78.08,27.55 -107.94,50.08 -26.96,20.34 -39.23,32.47 -59.33,59.17 -5.64,7.5 -10.58,15.32 -15.46,24.06 -16.55,29.68 -36.86,82.25 -39.85,118.15z"/>
   <path class="fil0" d="M2082.31 1085.74c0,76.62 31.06,141.25 107.29,157.94 20.89,4.58 27.7,3.61 46.67,6.37 15.95,2.32 34.45,1.49 49.5,3.56 8.06,1.1 16.79,-0.28 24.99,0.96 9.3,1.41 104.13,0.75 116.59,-0.96 4.2,-0.58 7.07,-0.65 12.75,-0.79 5.71,-0.14 6.21,-1.13 12.37,-1.18 6.04,-0.05 8.03,-0.72 12.53,-1.01 5.07,-0.33 10.07,1.55 10.07,-3.49l0 -181.71c0,-5.52 -11.53,-3.39 -22.57,-3.39 -20.46,0 -61.59,1.1 -77.24,-1.77 -29,-5.31 -46.9,-24.28 -46.9,-58.05l0 -534.97c40.83,0 62.23,1.32 97.53,-23.22 6.63,-4.61 11.18,-9.3 16.76,-14.84 10.11,-10.06 18.44,-24.8 23.74,-38.33 11.25,-28.77 8.69,-67.42 8.69,-99.66l-146.72 0 0 -155.75c0,-60.92 -54.69,-120.75 -118.51,-120.75l-127.53 0 0 1071.05z"/>
   <path class="fil0" d="M2610.5 1260.67l246.04 0 0 -858.88c0,-16.52 -3.42,-34.48 -7.75,-46.43 -9.32,-25.77 -26.94,-46.29 -53.88,-55.59 -13.45,-4.65 -29.23,-8.59 -46.72,-8.59l-137.69 0 0 969.49z"/>
  </g>
 </g>
</svg>
