<?xml version="1.0" encoding="UTF-8"?>
<!DOCTYPE svg PUBLIC "-//W3C//DTD SVG 1.1//EN" "http://www.w3.org/Graphics/SVG/1.1/DTD/svg11.dtd">
<!-- Creator: CorelDRAW 2021 (64-Bit) -->
<svg xmlns="http://www.w3.org/2000/svg" xml:space="preserve" width="21.3696mm" height="2.5822mm" version="1.1" style="shape-rendering:geometricPrecision; text-rendering:geometricPrecision; image-rendering:optimizeQuality; fill-rule:evenodd; clip-rule:evenodd"
viewBox="0 0 541.46 65.43"
 xmlns:xlink="http://www.w3.org/1999/xlink"
 xmlns:xodm="http://www.corel.com/coreldraw/odm/2003">
 <defs>
  <style type="text/css">
   <![CDATA[
    .fil0 {fill:#FEFEFE}
    .fil1 {fill:#FEFEFE}
    .fil2 {fill:#14497D;fill-rule:nonzero}
   ]]>
  </style>
 </defs>
 <g id="Layer_x0020_1">
  <metadata id="CorelCorpID_0Corel-Layer"/>
  <g id="_2614849068256">
   <path class="fil0" d="M26.77 25.07l-14.04 0 0 -13.3 14.84 0c3.05,0 6.43,0.6 7.83,3.09 0.26,0.46 0.37,0.76 0.52,1.3 0.48,1.67 0.29,4.33 -0.62,5.68 -1.87,2.79 -5.2,3.24 -8.53,3.24zm-26.77 -15.24l0 -2.6c0.02,-0.42 0.07,-0.82 0.15,-1.18 0.68,-2.96 3.16,-5.32 6.33,-5.32l23.36 0c3.54,0 8.12,0.59 11.18,2.12 0.97,0.48 1.89,0.99 2.76,1.62 0.84,0.61 1.62,1.36 2.27,2.16 0.65,0.8 1.27,1.73 1.7,2.68 1.88,4.22 2.07,10.38 -0.09,14.74 -0.97,1.96 -2.5,3.45 -4.28,4.64 -0.25,0.17 -1.51,0.85 -1.59,0.97 0.57,0.05 2.53,1.11 3.12,1.49 2.93,1.9 4.99,4.23 5.89,7.81 0.5,2.02 0.71,4.22 0.6,6.33 -0.02,0.34 0.02,0.6 -0.03,0.93l-0.18 1.69c-0.15,1.09 -0.4,2.15 -0.71,3.1 -1.11,3.3 -2.8,5.73 -5.48,7.87 -1.86,1.48 -4.05,2.44 -6.3,3.2 -4.46,1.49 -8.98,1.4 -13.83,1.4 -5.08,0 -10.16,0 -15.23,0 0.04,-0.03 0.08,-0.07 0.12,-0.1l0.76 -0.6c0.31,-0.23 0.58,-0.43 0.86,-0.67l3.5 -2.75c1.47,-1.15 2.91,-2.33 4.4,-3.44l1.75 -1.37c1.64,-1.21 3.17,-2.59 4.86,-3.72l3.44 -2.81c0.15,-0.14 0.25,-0.25 0.4,-0.4 0.17,-0.17 0.22,-0.24 0.37,-0.42l1.5 -1.62c0.13,-0.14 0.25,-0.23 0.36,-0.37l0.74 -0.85c0.74,-0.8 1.54,-1.61 2.49,-2.18 2.29,-1.37 3.68,-0.78 5.79,0.58 0.92,0.59 0.92,0.71 1.22,0.12 0.08,-0.15 0.14,-0.24 0.23,-0.39 0.17,-0.28 0.28,-0.48 0.43,-0.76 -0.3,-0.34 -0.68,-0.57 -1.07,-0.81 -0.39,-0.24 -0.77,-0.45 -1.15,-0.67 -0.23,-0.13 -0.41,-0.19 -0.66,-0.31 -1.01,-0.47 -1.65,-0.61 -2.8,-0.61 -1.49,0 -2.88,0.93 -3.98,1.59 -0.46,0.28 -1.62,1.25 -2.05,1.25 -0.86,0 -3.62,-1.27 -4.43,-1.59 -0.71,-0.28 -1.36,-0.58 -2.08,-0.88 -0.91,-0.38 -1.41,-0.83 -2.41,-0.83 -0.8,0 -4.18,1.78 -5.21,2.29 -1.66,0.83 -3.38,1.63 -5.02,2.48l-0.8 0.46c-0.27,0.17 -0.46,0.33 -0.53,0.71 -0.18,0.88 -0.27,2.37 -0.4,3.35 -0.08,0.63 -0.07,0.46 -0.47,0.78 -1.85,1.5 -3.76,2.89 -5.61,4.4 -0.24,0.2 -0.45,0.34 -0.7,0.55 -0.82,0.66 -2.74,2.21 -3.49,2.71l0 -46.78z"/>
   <path class="fil0" d="M150.63 63.49l12.39 0 0 -17.68c0,-0.72 0.16,-1.25 0.48,-1.68 0.78,-1.03 2.18,-0.86 3.13,-0.22 0.36,0.25 0.86,0.66 1.12,0.98 0.17,0.21 0.29,0.34 0.47,0.56 1.02,1.25 1.95,3.11 2.71,4.57l2.17 4.03c0.53,0.87 0.95,1.81 1.45,2.7l2.56 4.72c0.13,0.26 0.24,0.42 0.36,0.66 0.23,0.46 0.5,0.91 0.74,1.37l14.89 0c-0.16,-0.3 -0.34,-0.6 -0.52,-0.9 -1.62,-2.69 -3.17,-5.43 -4.78,-8.12l-9.61 -16.31c-0.38,-0.63 -0.7,-1.2 -1.07,-1.82 -0.37,-0.62 -0.73,-1.21 -1.06,-1.84l2.12 -2.26c0.38,-0.38 0.67,-0.73 1.05,-1.11l4.23 -4.53c0.19,-0.24 0.3,-0.35 0.52,-0.56l1.59 -1.71c0.09,-0.1 0.16,-0.16 0.26,-0.26 0.12,-0.13 0.13,-0.18 0.25,-0.31 0.19,-0.21 0.39,-0.36 0.57,-0.57 1.02,-1.16 2.11,-2.25 3.15,-3.38l2.36 -2.53c0.17,-0.17 0.74,-0.79 0.78,-0.92 -3.92,0 -7.84,0 -11.77,0 -0.92,0 -2,-0.05 -2.9,-0 -0.34,0.02 -0.6,0.43 -0.79,0.68l-4.45 5.1c-0.14,0.15 -0.21,0.26 -0.34,0.4 -0.82,0.88 -2.06,2.44 -2.76,3.15 -0.85,0.87 -1.57,1.88 -2.42,2.76l-3.1 3.55c-0.49,0.49 -0.93,1.06 -1.38,1.58l0 -26.55c0,-1.69 -0.5,-3.21 -1.63,-4.39 -1.09,-1.13 -2.56,-1.92 -4.22,-1.92l-6.54 0 0 62.75z"/>
   <path class="fil0" d="M74.47 54.34c-1.93,0 -3.55,-0.46 -4.56,-1.46 -2.1,-2.09 -2.33,-6.6 0.47,-8.77 0.85,-0.66 1.1,-0.78 2.07,-1.23 0.67,-0.31 1.79,-0.64 2.55,-0.8 0.95,-0.2 1.8,-0.37 2.7,-0.59 0.83,-0.21 1.83,-0.44 2.65,-0.71 0.85,-0.28 1.69,-0.48 2.5,-0.8 0.64,-0.25 1.9,-0.67 2.43,-0.93 0,2.12 0.09,4.41 -0.12,6.36 -0.2,1.81 -0.95,3.87 -2.08,5.26 -0.61,0.74 -0.5,0.62 -1.2,1.25 -0.34,0.31 -1.02,0.8 -1.43,1.01 -1.75,0.9 -3.5,1.42 -5.97,1.42zm-16.94 -26.83l12.39 0c0.75,-3.22 5.07,-3.41 7.84,-3.41 2.19,0 5.34,0.49 6.57,2.13 1.33,1.77 0.76,3.73 -0.92,4.89l-1.41 0.75 -1.68 0.53c-0.81,0.2 -1.55,0.35 -2.47,0.49 -1.71,0.25 -3.31,0.34 -5.2,0.66 -1.69,0.28 -3.25,0.6 -4.81,1.04 -6.23,1.77 -10.57,5.16 -11.55,11.81 -0.85,5.77 0.77,11.36 5.26,14.71 0.54,0.41 1.17,0.83 1.81,1.15 0.91,0.45 0.88,0.47 1.98,0.91 0.67,0.27 1.55,0.53 2.26,0.7 3.75,0.88 7.54,0.77 11.35,0.24 2.75,-0.39 5.92,-1.16 8.32,-2.37l1.73 -0.94c0.78,-0.47 1.24,-0.81 1.94,-1.36l1.05 -0.93c0.42,-0.32 1.51,-1.64 1.85,-2.13l1.03 -1.65c0.78,-1.36 1.49,-3.34 1.81,-4.9 0.29,-1.41 0.57,-3.08 0.57,-4.77l0 -17.96c0,-2.85 -1.03,-5.38 -2.67,-7.5l-1.01 -1.04c-1.17,-0.98 -0.8,-0.79 -2.36,-1.74 -0.41,-0.25 -0.87,-0.45 -1.32,-0.67 -3.12,-1.56 -8.56,-2.23 -12.09,-2.23 -3.45,0 -5.82,0.03 -9.08,0.92 -1.83,0.5 -3.93,1.39 -5.44,2.52 -1.36,1.03 -1.98,1.64 -2.99,2.98 -0.28,0.38 -0.53,0.77 -0.78,1.21 -0.83,1.49 -1.86,4.14 -2.01,5.95z"/>
   <path class="fil0" d="M104.88 54.68c0,3.86 1.57,7.11 5.4,7.95 1.05,0.23 1.39,0.18 2.35,0.32 0.8,0.12 1.73,0.07 2.49,0.18 0.41,0.06 0.85,-0.01 1.26,0.05 0.47,0.07 5.24,0.04 5.87,-0.05 0.21,-0.03 0.35,-0.03 0.64,-0.04 0.29,-0.01 0.31,-0.06 0.62,-0.06 0.3,-0 0.41,-0.04 0.63,-0.05 0.26,-0.02 0.51,0.08 0.51,-0.17l0 -9.15c0,-0.28 -0.58,-0.17 -1.14,-0.17 -1.03,0 -3.1,0.06 -3.89,-0.09 -1.46,-0.27 -2.36,-1.22 -2.36,-2.92l0 -26.94c2.05,0 3.13,0.07 4.91,-1.17 0.33,-0.23 0.57,-0.47 0.84,-0.75 0.51,-0.51 0.93,-1.25 1.2,-1.93 0.57,-1.45 0.44,-3.4 0.44,-5.02l-7.39 0 0 -7.84c0,-3.07 -2.75,-6.08 -5.97,-6.08l-6.42 0 0 53.94z"/>
   <path class="fil0" d="M131.48 63.49l12.39 0 0 -43.26c0,-0.83 -0.17,-1.74 -0.39,-2.34 -0.47,-1.3 -1.36,-2.33 -2.71,-2.8 -0.68,-0.23 -1.47,-0.43 -2.35,-0.43l-6.93 0 0 48.83z"/>
  </g>
  <path class="fil1" d="M311.96 0l221.63 0c4.33,0 7.87,3.54 7.87,7.87l0 49.69c0,4.33 -3.54,7.87 -7.87,7.87l-221.63 0c-4.33,0 -7.87,-3.54 -7.87,-7.87l0 -49.69c0,-4.33 3.54,-7.87 7.87,-7.87z"/>
  <path class="fil2" d="M324.8 13.13l0 44.69 10.09 0 0 -34.39 20.4 34.39 10.67 0 0 -50.07 -10.09 0 0 34.38 -20.39 -34.38 -5.52 0c-2.87,0 -5.15,2.5 -5.15,5.37zm46.83 44.69l36.23 0 0 -9.2 -26.14 0 0 -12.96 14.21 0c3.61,0 5.37,-1.69 5.3,-5.15l0 -3.31 -19.51 0 0 -10.75 26.14 0 0 -8.69 -31.07 0c-3.46,0.07 -5.15,1.91 -5.15,5.37l0 44.69zm98.59 -50.07c-2.58,0 -4.27,1.33 -5.15,3.9l-7.58 31.37 -7.22 -35.27 -10.9 0 -7.36 35.27 -8.47 -35.27 -10.68 0 14.29 50.07 9.86 0 7.81 -38.36 7.73 38.36 9.79 0 14.21 -50.07 -6.33 0zm30.33 42.34c-6.55,0 -9.94,-2.65 -10.31,-7.95l-9.94 0c0.29,10.9 6.99,16.42 20.25,16.42 12.66,0 19.29,-4.86 19.88,-14.65 0.29,-6.33 -2.36,-10.46 -7.95,-12.37 -4.2,-1.47 -8.17,-2.58 -11.93,-3.46 -6.55,-1.47 -9.72,-3.76 -9.72,-6.92 0.22,-3.83 2.87,-5.82 8.17,-5.89 4.34,0 7.36,1.4 9.06,4.27 0.96,1.92 2.43,2.95 4.57,2.95l5.74 0c-0.59,-10.38 -6.7,-15.54 -18.48,-15.54 -12.37,-0.07 -18.63,5.08 -18.85,15.61 0,6.63 4.86,11.19 14.65,13.7 3.61,0.96 7,1.84 9.94,2.72 3.09,0.88 4.57,2.5 4.57,4.93 0.07,4.12 -3.09,6.18 -9.65,6.18l0 0z"/>
  <path class="fil1" d="M224.54 63.49l0 -51.59 16.76 0c0.12,0.51 0.35,1.13 0.54,1.66l2.81 8.1c0.18,0.54 0.39,1.07 0.57,1.63l13.91 40.21 12.21 0 4.02 -11.85c0.45,-1.35 0.87,-2.54 1.32,-3.89l5.37 -15.62c0.91,-2.68 1.8,-5.21 2.69,-7.9 0.23,-0.69 0.46,-1.29 0.69,-1.99 1.94,-5.84 4.08,-11.74 6.02,-17.58 0.22,-0.67 1.25,-3.44 1.29,-3.92 -3.12,0 -6.24,0.02 -9.36,-0 -2.94,-0.02 -4.97,1.44 -5.73,3.63 -0.42,1.21 -0.68,2.41 -1.08,3.64 -1.04,3.2 -2.09,7.53 -3.13,10.78 -1,3.12 -8.11,28.31 -8.45,28.82 -0.12,-0.49 -0.29,-1 -0.44,-1.52l-2.91 -10.19c-2.84,-9.73 -5.52,-19.57 -8.36,-29.32l-1.25 -4.37c-0.1,-0.37 -0.35,-1.06 -0.39,-1.48l-49.56 0c-1.37,0 -2.83,-0.08 -3.97,0.18 -1.39,0.32 -2.92,1.42 -3.65,2.53 -0.3,0.46 -0.49,0.77 -0.74,1.3 -0.81,1.73 -0.6,4.97 -0.6,7.14l18.64 0 0 51.59 12.78 0z"/>
 </g>
</svg>
