<?xml version="1.0" encoding="UTF-8"?>
<!DOCTYPE svg PUBLIC "-//W3C//DTD SVG 1.1//EN" "http://www.w3.org/Graphics/SVG/1.1/DTD/svg11.dtd">
<!-- Creator: CorelDRAW 2021 (64-Bit) -->
<svg xmlns="http://www.w3.org/2000/svg" xml:space="preserve" width="216.777mm" height="50.0621mm" version="1.1" style="shape-rendering:geometricPrecision; text-rendering:geometricPrecision; image-rendering:optimizeQuality; fill-rule:evenodd; clip-rule:evenodd"
viewBox="0 0 4901.34 1131.91"
 xmlns:xlink="http://www.w3.org/1999/xlink"
 xmlns:xodm="http://www.corel.com/coreldraw/odm/2003">
 <defs>
  <style type="text/css">
   <![CDATA[
    .fil0 {fill:#063166}
   ]]>
  </style>
 </defs>
 <g id="Layer_x0020_1">
  <metadata id="CorelCorpID_0Corel-Layer"/>
  <g id="_2018484412416">
   <path class="fil0" d="M4506.99 952.93l-147.51 0 -168.03 -485.94c-2.2,-6.66 -4.71,-13.1 -6.89,-19.66l-33.94 -97.84c-2.23,-6.37 -5.06,-13.88 -6.5,-20.05l-202.58 0 0 623.48 -154.4 0 0 -623.48 -225.2 0c0,-26.15 -2.62,-65.28 7.2,-86.23 2.98,-6.35 5.23,-10.06 8.92,-15.66 8.89,-13.5 27.3,-26.7 44.1,-30.64 13.73,-3.22 31.37,-2.2 47.96,-2.2l598.9 0c0.42,5.05 3.43,13.39 4.71,17.91l15.08 52.77c34.36,117.8 66.77,236.7 101.06,354.26l35.17 123.15c1.81,6.27 3.88,12.4 5.26,18.34 4.21,-6.06 90.1,-310.59 102.15,-348.25 12.58,-39.34 25.26,-91.63 37.86,-130.3 4.83,-14.84 7.96,-29.4 13.01,-44.03 9.15,-26.51 33.73,-44.08 69.22,-43.88 37.68,0.22 75.42,0.01 113.1,0.01 -0.48,5.73 -12.91,39.22 -15.61,47.33 -23.5,70.52 -49.27,141.89 -72.77,212.42 -2.81,8.42 -5.6,15.69 -8.37,24.08 -10.73,32.48 -21.41,63.02 -32.44,95.41l-64.92 188.8c-5.44,16.34 -10.56,30.71 -15.98,46.96l-48.56 143.21zm-1077.82 -758.21l0 742.48c0,56.05 32.08,115.5 74.87,149.35 8.71,6.89 19.4,14.64 29.38,19.79 30.98,15.97 57.41,25.57 100.3,25.57l1061.1 0c23.75,0 45.9,-3.28 66.5,-10.2 19.94,-6.7 35.73,-14.34 52.5,-26.18 43.34,-30.59 70.73,-71.55 82.99,-124.51 3.16,-13.63 4.52,-31.35 4.52,-47.6l0 -714.94c0,-46.29 -11.39,-83.89 -34.22,-118.21 -5.16,-7.75 -21.42,-28.67 -28.57,-34.37l-36.47 -27.45 -16.64 -8.93c-28.63,-11.51 -47.18,-19.53 -82.75,-19.53l-1073.89 0c-70.4,0 -125.13,35.65 -161.7,84.15 -20.56,27.26 -37.93,72.42 -37.93,110.57z"/>
   <path class="fil0" d="M463.19 433.68l-242.9 0 0 -230.12 256.67 0c52.73,0 111.19,10.34 135.41,53.4 4.49,7.97 6.38,13.13 9.05,22.42 8.31,28.88 4.92,74.89 -10.7,98.25 -32.31,48.32 -90,56.04 -147.52,56.04zm-463.19 -263.55l0 -44.96c0.38,-7.27 1.14,-14.17 2.56,-20.34 11.79,-51.15 54.66,-92.05 109.55,-92.05l404.18 0c61.28,0 140.41,10.18 193.42,36.7 16.7,8.36 32.7,17.1 47.68,28.05 14.48,10.59 27.99,23.47 39.32,37.38 11.23,13.78 22.05,29.98 29.35,46.37 32.5,72.97 35.76,179.58 -1.62,255.02 -16.76,33.82 -43.14,59.62 -74.09,80.31 -4.29,2.87 -26.02,14.65 -27.54,16.72 9.74,0.81 43.79,19.2 53.9,25.76 50.63,32.81 86.4,73.16 101.88,135.12 8.73,34.93 12.38,73.02 10.41,109.56 -0.31,5.84 0.28,10.43 -0.56,16.15l-3.19 29.26c-2.63,18.85 -6.86,37.24 -12.34,53.55 -19.19,57.06 -48.45,99.07 -94.89,136.22 -32.12,25.7 -70,42.25 -108.92,55.31 -77.09,25.86 -155.34,24.21 -239.34,24.21 -87.85,0 -175.7,0 -263.56,0 0.63,-0.54 1.31,-1.14 2.13,-1.8l13.18 -10.43c5.3,-3.99 9.94,-7.47 14.96,-11.6l60.63 -47.55c25.39,-19.83 50.35,-40.33 76.16,-59.56l30.34 -23.75c28.33,-21.01 54.77,-44.76 84.07,-64.42l59.56 -48.61c2.53,-2.5 4.33,-4.38 6.87,-6.9 3.02,-2.99 3.76,-4.14 6.43,-7.33l26.02 -28.06c2.18,-2.48 4.24,-3.93 6.28,-6.5l12.87 -14.66c12.77,-13.81 26.7,-27.93 42.98,-37.66 39.58,-23.65 63.72,-13.48 100.17,10.08 15.87,10.26 15.87,12.24 21.17,2.1 1.39,-2.65 2.43,-4.13 4.03,-6.79 2.93,-4.86 4.87,-8.35 7.44,-13.21 -5.09,-5.85 -11.75,-9.89 -18.5,-13.95 -6.75,-4.07 -13.27,-7.71 -19.9,-11.57 -3.89,-2.27 -7.06,-3.25 -11.43,-5.29 -17.39,-8.13 -28.55,-10.49 -48.52,-10.49 -25.85,0 -49.79,16.16 -68.8,27.58 -7.95,4.78 -27.94,21.59 -35.45,21.59 -14.81,0 -62.66,-21.95 -76.7,-27.54 -12.31,-4.89 -23.52,-9.97 -35.97,-15.16 -15.7,-6.55 -24.38,-14.34 -41.72,-14.34 -13.8,0 -72.23,30.7 -90.15,39.66 -28.79,14.39 -58.51,28.16 -86.88,42.93l-13.77 7.86c-4.61,3.01 -7.89,5.65 -9.28,12.36 -3.15,15.23 -4.62,41.11 -6.85,58.06 -1.45,10.98 -1.27,7.95 -8.13,13.5 -32.03,25.9 -65.09,50.05 -96.99,76.09 -4.24,3.46 -7.89,5.99 -12.17,9.46 -14.15,11.49 -47.32,38.21 -60.3,46.9l0 -809.35z"/>
   <path class="fil0" d="M2606.05 1098.47l214.38 0 0 -305.84c0,-12.51 2.7,-21.71 8.25,-29.12 13.39,-17.87 37.8,-14.93 54.12,-3.75 6.27,4.29 14.89,11.34 19.4,16.99 2.88,3.6 5.04,5.98 8.03,9.67 17.6,21.68 33.77,53.72 46.9,78.97l37.55 69.64c9.18,15.08 16.41,31.27 25.07,46.73l44.24 81.64c2.22,4.52 4.16,7.26 6.24,11.47 3.95,8.01 8.61,15.73 12.78,23.61l257.66 0c-2.75,-5.2 -5.91,-10.37 -9.04,-15.55 -28.09,-46.51 -54.82,-93.92 -82.73,-140.5l-166.32 -282.12c-6.55,-10.83 -12.11,-20.77 -18.57,-31.59 -6.42,-10.76 -12.59,-20.84 -18.38,-31.78l36.62 -39.1c6.63,-6.55 11.61,-12.63 18.21,-19.17l73.16 -78.28c3.27,-4.09 5.24,-6.04 8.95,-9.73l27.53 -29.5c1.66,-1.66 2.87,-2.72 4.44,-4.41 2.08,-2.25 2.32,-3.18 4.4,-5.43 3.28,-3.55 6.67,-6.23 9.84,-9.83 17.62,-20.01 36.49,-38.91 54.6,-58.49l40.82 -43.75c2.93,-3.05 12.87,-13.64 13.5,-16 -67.86,0 -135.71,0 -203.57,0 -15.97,0 -34.61,-0.9 -50.23,-0.08 -5.86,0.31 -10.3,7.45 -13.69,11.88l-76.96 88.26c-2.47,2.66 -3.58,4.42 -5.89,6.89 -14.19,15.16 -35.66,42.22 -47.69,54.58 -14.69,15.09 -27.11,32.57 -41.82,47.67l-53.59 61.47c-8.45,8.5 -16.08,18.36 -23.84,27.29l0 -459.25c0,-29.26 -8.62,-55.6 -28.25,-75.99 -18.8,-19.53 -44.25,-33.17 -73.04,-33.17l-113.09 0 0 1085.69z"/>
   <path class="fil0" d="M1288.27 940.14c-33.33,0 -61.42,-7.9 -78.94,-25.31 -36.39,-36.18 -40.37,-114.22 8.12,-151.72 14.68,-11.35 18.96,-13.41 35.74,-21.3 11.53,-5.42 30.93,-11.05 44.16,-13.86 16.36,-3.47 31.08,-6.35 46.77,-10.27 14.43,-3.61 31.58,-7.57 45.81,-12.22 14.76,-4.82 29.2,-8.31 43.19,-13.85 11.08,-4.38 32.83,-11.62 42,-16.02 0,36.71 1.49,76.25 -2.14,109.97 -3.36,31.25 -16.32,66.87 -35.9,90.96 -10.45,12.86 -8.6,10.79 -20.71,21.57 -5.98,5.33 -17.67,13.77 -24.82,17.46 -30.23,15.61 -60.57,24.57 -103.27,24.57zm-293.06 -464.17l214.38 0c12.98,-55.69 87.71,-59.01 135.71,-59.01 37.98,0 92.4,8.44 113.68,36.78 22.98,30.6 13.07,64.46 -15.92,84.58l-24.41 12.96 -29.1 9.25c-14.06,3.48 -26.77,6.07 -42.71,8.42 -29.53,4.35 -57.24,5.88 -89.91,11.38 -29.19,4.91 -56.3,10.3 -83.3,17.99 -107.79,30.68 -182.85,89.24 -199.77,204.41 -14.68,99.89 13.39,196.49 91.03,254.56 9.37,7.01 20.29,14.4 31.29,19.84 15.77,7.8 15.2,8.12 34.32,15.84 11.58,4.68 26.77,9.25 39.02,12.11 64.89,15.16 130.43,13.35 196.38,4.13 47.6,-6.66 102.35,-20 143.96,-40.92l29.97 -16.25c13.55,-8.16 21.4,-13.96 33.49,-23.54l18.24 -16.18c7.23,-5.57 26.12,-28.45 32.03,-36.8l17.76 -28.47c13.57,-23.53 25.76,-57.86 31.34,-84.7 5.09,-24.46 9.91,-53.36 9.91,-82.53l0 -310.76c0,-49.37 -17.8,-93.03 -46.21,-129.82l-17.42 -17.98c-20.29,-16.96 -13.77,-13.58 -40.79,-30.02 -6.99,-4.25 -15.13,-7.85 -22.76,-11.66 -53.97,-27.01 -148.07,-38.67 -209.15,-38.67 -59.67,0 -100.61,0.46 -157.15,15.94 -31.61,8.65 -68.03,24.01 -94.05,43.63 -23.5,17.72 -34.19,28.29 -51.7,51.56 -4.92,6.53 -9.22,13.35 -13.46,20.96 -14.43,25.87 -32.12,71.67 -34.72,102.95z"/>
   <path class="fil0" d="M1814.4 946.04c0,66.77 27.07,123.08 93.49,137.61 18.21,3.99 24.14,3.15 40.67,5.55 13.9,2.02 30.01,1.3 43.12,3.1 7.03,0.96 14.63,-0.25 21.78,0.84 8.1,1.23 90.73,0.65 101.59,-0.84 3.65,-0.5 6.15,-0.57 11.11,-0.69 4.97,-0.12 5.41,-0.98 10.78,-1.03 5.26,-0.04 7,-0.63 10.92,-0.88 4.42,-0.28 8.77,1.35 8.77,-3.04l0 -158.33c0,-4.82 -10.04,-2.95 -19.67,-2.95 -17.82,0 -53.66,0.96 -67.3,-1.54 -25.27,-4.63 -40.88,-21.16 -40.88,-50.58l0 -466.14c35.58,0 54.23,1.15 84.98,-20.24 5.77,-4.02 9.74,-8.1 14.6,-12.94 8.8,-8.76 16.08,-21.61 20.69,-33.4 9.8,-25.07 7.57,-58.75 7.57,-86.84l-127.84 0 0 -135.71c0,-53.08 -47.66,-105.23 -103.26,-105.23l-111.12 0 0 933.26z"/>
   <path class="fil0" d="M2274.64 1098.47l214.38 0 0 -748.38c0,-14.4 -2.98,-30.04 -6.75,-40.45 -8.13,-22.45 -23.48,-40.34 -46.95,-48.44 -11.73,-4.05 -25.47,-7.48 -40.71,-7.48l-119.98 0 0 844.75z"/>
  </g>
 </g>
</svg>
