<?xml version="1.0" encoding="UTF-8"?>
<!DOCTYPE svg PUBLIC "-//W3C//DTD SVG 1.1//EN" "http://www.w3.org/Graphics/SVG/1.1/DTD/svg11.dtd">
<!-- Creator: CorelDRAW 2021 (64-Bit) -->
<svg xmlns="http://www.w3.org/2000/svg" xml:space="preserve" width="4.7184mm" height="5.7587mm" version="1.1" style="shape-rendering:geometricPrecision; text-rendering:geometricPrecision; image-rendering:optimizeQuality; fill-rule:evenodd; clip-rule:evenodd"
viewBox="0 0 11.01 13.43"
 xmlns:xlink="http://www.w3.org/1999/xlink"
 xmlns:xodm="http://www.corel.com/coreldraw/odm/2003">
 <defs>
  <style type="text/css">
   <![CDATA[
    .fil0 {fill:white}
   ]]>
  </style>
 </defs>
 <g id="Layer_x0020_1">
  <metadata id="CorelCorpID_0Corel-Layer"/>
  <path class="fil0" d="M5.73 5.21l-3.01 0 0 -2.85 3.18 0c0.65,0 1.38,0.13 1.68,0.66 0.06,0.1 0.08,0.16 0.11,0.28 0.1,0.36 0.06,0.93 -0.13,1.22 -0.4,0.6 -1.11,0.69 -1.83,0.69zm-5.73 -3.26l0 -0.56c0,-0.09 0.01,-0.18 0.03,-0.25 0.15,-0.63 0.68,-1.14 1.36,-1.14l5 0c0.76,0 1.74,0.13 2.39,0.45 0.21,0.1 0.4,0.21 0.59,0.35 0.18,0.13 0.35,0.29 0.49,0.46 0.14,0.17 0.27,0.37 0.36,0.57 0.4,0.9 0.44,2.22 -0.02,3.16 -0.21,0.42 -0.53,0.74 -0.92,0.99 -0.05,0.04 -0.32,0.18 -0.34,0.21 0.12,0.01 0.54,0.24 0.67,0.32 0.63,0.41 1.07,0.91 1.26,1.67 0.11,0.43 0.15,0.9 0.13,1.36 -0,0.07 0,0.13 -0.01,0.2l-0.04 0.36c-0.03,0.23 -0.08,0.46 -0.15,0.66 -0.24,0.71 -0.6,1.23 -1.17,1.69 -0.4,0.32 -0.87,0.52 -1.35,0.68 -0.95,0.32 -1.92,0.3 -2.96,0.3 -1.09,0 -2.17,0 -3.26,0 0.01,-0.01 0.02,-0.01 0.03,-0.02l0.16 -0.13c0.07,-0.05 0.12,-0.09 0.18,-0.14l0.75 -0.59c0.31,-0.25 0.62,-0.5 0.94,-0.74l0.38 -0.29c0.35,-0.26 0.68,-0.55 1.04,-0.8l0.74 -0.6c0.03,-0.03 0.05,-0.05 0.08,-0.09 0.04,-0.04 0.05,-0.05 0.08,-0.09l0.32 -0.35c0.03,-0.03 0.05,-0.05 0.08,-0.08l0.16 -0.18c0.16,-0.17 0.33,-0.35 0.53,-0.47 0.49,-0.29 0.79,-0.17 1.24,0.12 0.2,0.13 0.2,0.15 0.26,0.03 0.02,-0.03 0.03,-0.05 0.05,-0.08 0.04,-0.06 0.06,-0.1 0.09,-0.16 -0.06,-0.07 -0.15,-0.12 -0.23,-0.17 -0.08,-0.05 -0.16,-0.1 -0.25,-0.14 -0.05,-0.03 -0.09,-0.04 -0.14,-0.07 -0.22,-0.1 -0.35,-0.13 -0.6,-0.13 -0.32,0 -0.62,0.2 -0.85,0.34 -0.1,0.06 -0.35,0.27 -0.44,0.27 -0.18,0 -0.78,-0.27 -0.95,-0.34 -0.15,-0.06 -0.29,-0.12 -0.45,-0.19 -0.19,-0.08 -0.3,-0.18 -0.52,-0.18 -0.17,0 -0.89,0.38 -1.12,0.49 -0.36,0.18 -0.72,0.35 -1.07,0.53l-0.17 0.1c-0.06,0.04 -0.1,0.07 -0.11,0.15 -0.04,0.19 -0.06,0.51 -0.08,0.72 -0.02,0.14 -0.02,0.1 -0.1,0.17 -0.4,0.32 -0.81,0.62 -1.2,0.94 -0.05,0.04 -0.1,0.07 -0.15,0.12 -0.18,0.14 -0.59,0.47 -0.75,0.58l0 -10.01z"/>
 </g>
</svg>
